<svg width="42" height="25" xmlns="http://www.w3.org/2000/svg"><g fill="none" fill-rule="evenodd"><path stroke="#002F86" d="M.5.5h41v24H.5z"/><g fill-rule="nonzero"><path d="M22.767 10.43h-1.343a.394.394 0 00-.321.16l-1.853 2.57-.786-2.47a.386.386 0 00-.371-.26h-1.32c-.16 0-.272.148-.22.29l1.478 4.087-1.391 1.848c-.11.144.001.345.19.345h1.342a.396.396 0 00.319-.157l4.467-6.069c.107-.145-.003-.344-.19-.344m-8.982 2.449c-.13.719-.735 1.201-1.509 1.201-.387 0-.698-.117-.897-.34-.198-.22-.272-.534-.21-.883.12-.713.737-1.21 1.498-1.21.38 0 .688.118.891.342.205.226.286.542.227.89m1.863-2.449h-1.337a.229.229 0 00-.23.185l-.059.352-.093-.128c-.29-.395-.935-.527-1.579-.527a3.014 3.014 0 00-2.983 2.53c-.128.737.053 1.441.497 1.933.408.451.99.64 1.684.64 1.19 0 1.85-.72 1.85-.72l-.06.35c-.022.132.087.253.23.253h1.204c.19 0 .353-.13.383-.308l.723-4.307c.022-.133-.088-.253-.23-.253m-8.021.03c-.153.943-.918.943-1.658.943h-.421l.295-1.76a.228.228 0 01.23-.185h.193c.504 0 .98 0 1.225.27.147.162.191.402.136.732M7.306 8H4.515a.382.382 0 00-.384.308l-1.128 6.737c-.022.132.087.253.23.253h1.332c.191 0 .354-.131.383-.308l.305-1.818a.381.381 0 01.383-.308h.883c1.839 0 2.9-.837 3.177-2.497.125-.726.005-1.296-.356-1.696C8.943 8.232 8.24 8 7.306 8" fill="#002F86"/><path d="M37.245 8.2L36.098 15.6a.235.235 0 00.23.273h1.154a.39.39 0 00.384-.332l1.131-7.269a.235.235 0 00-.23-.273h-1.291a.234.234 0 00-.23.2m-3.444 5.064c-.13.776-.736 1.296-1.51 1.296-.389 0-.7-.126-.9-.366-.198-.238-.272-.576-.21-.953.121-.77.738-1.306 1.5-1.306.381 0 .69.127.893.37.205.243.286.584.227.96m1.866-2.643h-1.339a.234.234 0 00-.23.2l-.059.38-.094-.138c-.29-.427-.936-.57-1.58-.57-1.48 0-2.743 1.137-2.989 2.73-.128.796.054 1.556.499 2.086.408.487.991.69 1.686.69 1.192 0 1.853-.776 1.853-.776l-.06.377a.235.235 0 00.23.273h1.206a.39.39 0 00.383-.332l.724-4.647a.235.235 0 00-.23-.273m-8.033.033c-.153 1.017-.92 1.017-1.66 1.017h-.422l.296-1.9a.234.234 0 01.23-.199h.193c.505 0 .981 0 1.227.292.147.174.191.433.136.79M27.312 8h-2.795a.39.39 0 00-.384.333l-1.13 7.268a.235.235 0 00.23.273h1.434a.273.273 0 00.269-.232l.32-2.061a.39.39 0 01.384-.333h.885c1.84 0 2.904-.903 3.181-2.694.125-.783.005-1.399-.356-1.83C28.952 8.251 28.248 8 27.312 8" fill="#009CDE"/></g></g></svg>