<svg height="25" width="42" xmlns="http://www.w3.org/2000/svg"><g fill="none" fill-rule="evenodd"><path d="M0 0h42v25H0z" fill="#26337a"/><g fill="#fff"><path d="M17.426 16.61l1.291-8.011h2.064l-1.29 8.01zM26.978 8.795a5.103 5.103 0 00-1.85-.336c-2.04 0-3.477 1.087-3.49 2.644-.012 1.151 1.026 1.794 1.808 2.176.805.393 1.075.644 1.072.994-.006.537-.642.783-1.236.783-.826 0-1.265-.121-1.944-.42l-.266-.128-.288 1.793c.481.224 1.373.417 2.3.427 2.169 0 3.578-1.074 3.594-2.736.008-.913-.542-1.605-1.734-2.177-.72-.371-1.164-.617-1.159-.993 0-.333.374-.69 1.183-.69a3.62 3.62 0 011.545.308l.185.092zM29.726 13.77c.172-.461.823-2.24.823-2.24-.012.021.17-.464.274-.764l.14.69s.396 1.913.477 2.313zm2.547-5.163h-1.595c-.495 0-.865.141-1.082.664l-3.066 7.341h2.168s.354-.987.434-1.204l2.644.004c.062.28.252 1.2.252 1.2h1.916zM15.694 8.605l-2.02 5.462-.217-1.11c-.376-1.28-1.548-2.666-2.86-3.36l1.85 7.006 2.184-.002 3.25-7.996z"/></g><path d="M11.798 8.6H8.469l-.027.166c2.59.663 4.304 2.265 5.015 4.19l-.723-3.68c-.125-.508-.488-.658-.936-.676" fill="#ed982d"/></g></svg>