<svg width="42" height="25" viewBox="0 0 494 264" xmlns="http://www.w3.org/2000/svg" xmlns:xlink="http://www.w3.org/1999/xlink"><!--Generator: Sketch 50.2 (55047) - http://www.bohemiancoding.com/sketch--><defs><path id="a" d="M.491.305h105.307V139H.491z"/></defs><g fill="none" fill-rule="evenodd"><g fill="#1A3582"><path d="M85.511 261.862H68c.969-5.014 1.914-9.852 2.839-14.693 3.825-20.014 7.664-40.027 11.436-60.052.403-2.135 1.133-3.209 3.558-3.11 4.832.194 9.679.057 14.836.057l-5.749 29.821c1.86-1.47 3.244-2.582 4.648-3.667 6.484-5.005 13.727-6.853 21.684-4.82 5.847 1.496 9.855 6 9.746 12.055-.111 6.214-1.174 12.444-2.203 18.601-1.324 7.922-3.059 15.772-4.538 23.668-.264 1.412-.527 2.312-2.28 2.277-5.152-.104-10.307-.037-15.854-.037 1.14-5.958 2.24-11.666 3.326-17.377 1.08-5.678 2.24-11.343 3.185-17.044.536-3.23.915-6.732-2.663-8.575-3.586-1.848-7.238-1.154-10.512.97-4.52 2.932-6.873 7.443-7.96 12.572-1.87 8.812-3.522 17.67-5.279 26.508-.186.937-.46 1.857-.709 2.846M257 261.849c1.739-9.019 3.419-17.763 5.112-26.505 3.09-15.955 6.241-31.899 9.227-47.873.485-2.593 1.414-3.6 4.162-3.458 4.672.242 9.366.067 14.456.067l-8.191 42.289c1.602-1.288 2.69-2.132 3.743-3.016 6.233-5.237 12.413-10.537 18.727-15.674 1.096-.893 2.734-1.522 4.142-1.562 5.933-.17 11.873-.072 18.622-.072l-32.46 25.841 23.61 30.098c-6.845 0-13.088.07-19.324-.086-.806-.02-1.74-1.09-2.347-1.88-5.486-7.146-10.912-14.337-16.894-22.223l-4.798 24.054H257zM67.485 206.33c-4.16-1.796-8.102-4.138-12.363-5.226-20.29-5.177-32.278 9.621-34.578 23.311-.889 5.297-1.174 10.602.928 15.676 3.067 7.406 11.16 11.206 20.04 9.824 6.375-.992 12.286-3.186 17.934-6.22.498-.267 1.032-.468 2.059-.93-1.084 5.397-2.052 10.372-3.126 15.324-.112.516-.786 1.118-1.327 1.303-11.843 4.053-23.884 6.4-36.281 2.909C8.01 258.706.123 248.101.003 234.819c-.17-18.893 7.44-33.683 23.991-42.913 14.514-8.094 29.683-7.36 44.7-.884.671.29 1.41 1.633 1.294 2.351-.72 4.424-1.675 8.81-2.503 12.957M180.212 228.101c.502-4.542-.225-8.273-4.34-10.379-7.113-3.64-17.798 2.34-18.713 10.379h23.053zm15.886 11.264h-41.393c-1.91 6.024 1.975 11.605 8.534 12.399 8.099.98 15.747-.89 23.214-3.806 1.808-.707 3.597-1.46 5.871-2.387-.878 4.392-1.634 8.395-2.524 12.369-.134.602-.79 1.345-1.372 1.552-10.769 3.837-21.873 5.784-33.175 3.587-14.669-2.851-21.168-12.832-18.764-27.778 2.582-16.055 16.27-31.718 39.355-30.199 10.489.691 18.269 5.91 21.028 14.6 2.07 6.525.978 12.981-.774 19.663z"/><path d="M363.379 229.24c.08-7.245-3.207-11.446-9.234-11.514-3.731-.042-7.144 1.11-9.787 3.91-5.99 6.344-7.462 14.08-6.23 22.379.71 4.775 4.065 7.182 8.897 7.268 3.695.066 6.822-1.229 9.494-3.82 5.157-5.003 6.52-11.409 6.86-18.223m-8.267-24.238c7.154-.06 13.873 1.35 19.377 6.178 7.659 6.718 8.617 15.546 6.593 24.809-3.888 17.797-18.96 28.938-37.095 27.95-6.911-.376-13.333-1.929-18.414-6.973-6.488-6.44-7.616-14.548-5.781-22.928 3.337-15.252 12.404-25.227 28.056-28.332 2.374-.471 4.84-.481 7.264-.704M450 206.018l-10.73 55.354h-17.773c.423-2.382.822-4.633 1.295-7.308-2.582 1.903-4.74 3.631-7.034 5.157-5.667 3.769-11.964 4.488-18.462 3.17-6.007-1.22-10.505-6.533-10.288-12.816.199-5.783 1.152-11.568 2.126-17.292 1.481-8.697 3.268-17.342 4.948-26.13h17.695c-1.216 6.26-2.429 12.4-3.595 18.548-.979 5.154-1.867 10.324-2.865 15.474-.585 3.022-.594 5.954 2.062 7.978 2.746 2.094 5.95 1.636 8.91.523 5.512-2.072 8.43-6.632 9.691-11.994 2.224-9.446 3.91-19.018 5.947-28.51.177-.821 1.272-2.036 1.973-2.06 5.241-.173 10.49-.094 16.1-.094M484.149 249.433l-2.432 12.319c-7.226 0-14.221.66-21.036-.173-7.829-.957-11.75-7-10.428-14.97 1.9-11.443 4.175-22.823 6.332-34.221 1.261-6.666 2.692-13.3 3.854-19.981.327-1.884 1.043-2.44 2.845-2.406 5.053.096 10.109.034 15.446.034-1.01 5.517-1.943 10.622-2.93 16.022H494c-.791 4.041-1.417 7.773-2.345 11.425-.149.586-1.64 1.142-2.526 1.167-4.495.128-8.997.163-13.492.05-1.99-.051-2.627.677-2.962 2.634-1.262 7.361-2.806 14.672-4.146 22.019-.77 4.22.597 5.915 4.844 6.057 3.402.114 6.81.024 10.776.024M249.684 246.56c-.862 4.682-1.55 8.74-2.405 12.762-.15.71-.887 1.648-1.539 1.842-11.162 3.319-22.364 4.544-33.23-.91-6.774-3.4-10.043-9.397-10.45-16.925-1.151-21.3 14.463-37.984 36.256-38.325 5.46-.086 10.942 1.262 16.41 1.981 1.897.25 2.595 1.25 2.14 3.257-.884 3.885-1.59 7.81-2.386 11.803-2.55-1.176-4.77-2.408-7.125-3.249-14.698-5.25-28.434 6.151-26.41 22.331.79 6.322 5.227 10.198 12.1 9.89 4.544-.202 9.034-1.848 13.527-2.935.91-.22 1.728-.83 3.112-1.522"/></g><path d="M408.008 89.67l-10.465-49.724-.635.052-18.11 49.673h29.21zM450 137h-32.002c-1.25-5.825-2.625-11.64-3.69-17.512-.376-2.077-1.287-2.48-3.167-2.472-13.316.052-26.634.052-39.95-.032-1.97-.012-2.739.782-3.34 2.522-2.028 5.863-4.232 11.666-6.363 17.475H325c2.861-6.796 5.603-13.322 8.356-19.844 14.587-34.564 29.179-69.126 43.764-103.69 2.76-6.54 7.534-10.314 14.81-10.39 9.242-.096 18.486-.007 27.729-.057 1.65-.01 2.434.468 2.8 2.223 6.303 30.294 12.675 60.575 19.05 90.855 2.681 12.733 5.406 25.458 8.097 38.188.18.846.25 1.714.394 2.734zM20.04 6.701c-.227-2.564.47-3.67 3.227-3.653 18.109.11 36.224.325 54.326-.043 11.066-.224 16.96 6.87 18.413 15.02 4.316 24.193 9.027 48.316 13.593 72.464.18.952.464 1.885.898 3.616 1.855-4.592 3.473-8.542 5.05-12.508a67478.67 67478.67 0 0030.186-76.036c.582-1.467 1.138-2.513 3.061-2.5 10.984.082 21.968.042 32.953.052.279.001.558.115 1.253.267-1.383 3.334-2.706 6.565-4.06 9.782-17.01 40.38-34.042 80.75-50.982 121.158-.869 2.07-1.89 2.705-4.105 2.68-11.174-.127-22.35-.059-33.757-.059-1.812-6.912-3.614-13.726-5.384-20.547-7.557-29.118-15.146-58.227-22.619-87.366-1.398-5.452-4.213-9.619-9.578-11.51-9.938-3.505-19.967-6.753-29.962-10.098-.82-.275-1.665-.478-2.513-.719" fill="#1A3582"/><g transform="translate(228)"><mask id="b" fill="white"><use xlink:href="#a"/></mask><path d="M.491 131.74c2.091-9.777 4.12-19.26 6.211-29.044 3.171 1.317 6.03 2.566 8.933 3.699 11.068 4.322 22.522 5.804 34.203 3.6 3.423-.645 6.918-2.434 9.708-4.573 4.842-3.711 5.203-10.322.787-14.52-3.09-2.937-6.896-5.183-10.563-7.445-7.112-4.385-14.863-7.899-21.444-12.95C7.05 54.17 13.572 28.67 27.726 15.74c8.96-8.185 19.787-12.41 31.557-14.307C73.936-.93 88.347.476 102.445 5.083c1.104.36 2.153.891 3.353 1.395l-5.92 27.54c-5.621-1.584-10.932-3.404-16.386-4.539-7.471-1.554-15.05-1.9-22.542.146-1.32.36-2.63.863-3.84 1.501-7.789 4.107-8.765 11.539-1.64 16.62 5.9 4.208 12.668 7.179 18.788 11.107 5.526 3.547 11.178 7.138 15.924 11.61 11.006 10.372 11.451 26.124 5.896 39.214-5.915 13.935-17.377 21.686-31.388 25.684-20.929 5.972-41.69 4.261-62.135-2.712-.638-.218-1.24-.542-2.064-.908" fill="#1A3582" mask="url(#b)"/></g><path d="M233 3l-28.533 134H170L198.543 3H233z" fill="#1A3582"/></g></svg>